<svg xmlns="http://www.w3.org/2000/svg" id="e0b35d3b-637f-4cd2-a9fd-b6e76c92ec56" viewBox="0 0 912.921 680.228" width="912.921" height="680.228" data-name="Layer 1"><title>delivery_address</title><rect fill="#3f3d56" x="102.002" y="641.27" width="556.108" height="2.36139" /><path fill="#ffb9b9" transform="translate(-143.54 -109.886)" d="M 540.457 426.261 s -11.802 53.109 11.802 43.6674 s 9.44161 -46.0278 9.44161 -46.0278 Z" /><path fill="#ffb9b9" transform="translate(-143.54 -109.886)" d="M 761.154 443.964 s 28.3248 34.2258 10.6218 41.307 s -27.1446 -31.8654 -24.7842 -35.406 S 761.154 443.964 761.154 443.964 Z" /><circle fill="#ffb9b9" cx="550.343" cy="56.7313" r="35.406" /><polygon fill="#ffb9b9" points="523.789,70.304 519.068,106.89 558.014,121.052 566.276,79.745 523.789,70.304" /><path fill="#cfcce0" transform="translate(-143.54 -109.886)" d="M 689.162 216.186 s -20.0072 -9.87712 -24.166 -17.9208 l -8.8796 8.47916 s -63.7308 -5.901 -73.1724 25.9644 s -1.1802 147.525 -1.1802 147.525 s -12.9822 51.9288 -9.44161 53.109 s 47.208 22.4238 108.578 10.6218 c 0 0 27.1446 -4.72081 31.8654 -1.18021 s -2.3604 -56.6496 -2.3604 -56.6496 s 47.208 -106.218 38.9466 -119.2 s -44.8476 -40.1268 -44.8476 -40.1268 l 2.3604 -12.9822 S 690.342 220.906 689.162 216.186 Z" /><path fill="#cfcce0" transform="translate(-143.54 -109.886)" d="M 592.385 224.447 s -21.2436 10.6218 -24.7842 27.1446 S 531.015 405.018 534.556 413.279 S 536.916 432.162 536.916 432.162 l 30.6852 -3.5406 s -5.901 -8.26141 -2.3604 -11.802 s 7.0812 -15.3426 4.7208 -20.0634 s -4.7208 3.5406 8.26141 -11.802 S 620.71 229.168 592.385 224.447 Z" /><path fill="#cfcce0" transform="translate(-143.54 -109.886)" d="M 742.271 264.574 s 10.0317 0.5901 12.3921 17.1129 s 6.4911 118.61 6.4911 118.61 s 15.3426 33.0456 9.44161 37.7664 s -2.36041 11.802 -2.36041 11.802 l -21.2436 5.901 l -46.0278 -71.9922 Z" /><path fill="#2f2e41" transform="translate(-143.54 -109.886)" d="M 575.863 428.622 s -7.08121 1.1802 -7.08121 27.1446 s -12.9822 106.218 -4.7208 119.2 s 9.4416 129.822 9.4416 129.822 s 22.4238 9.4416 41.307 -21.2436 l 2.3604 -16.5228 l 4.7208 -80.2536 l 18.8832 -100.317 L 666.738 597.391 s -3.5406 133.363 9.44161 133.363 s 37.7664 -10.6218 37.7664 -10.6218 s 5.901 -11.802 3.5406 -17.703 s -4.7208 -4.7208 -2.3604 -9.44161 s 5.901 -127.462 5.901 -127.462 s -4.7208 -126.281 -10.6218 -129.822 S 575.863 428.622 575.863 428.622 Z" /><path fill="#2f2e41" transform="translate(-143.54 -109.886)" d="M 575.863 700.068 l -18.8832 20.0634 s -34.2258 31.8654 -4.72081 33.0456 s 46.0278 -18.8832 46.0278 -21.2436 s 1.1802 -10.6218 9.4416 -10.6218 s 28.3248 -20.0634 23.604 -28.3248 s -18.8832 -11.802 -18.8832 -11.802 Z" /><path fill="#2f2e41" transform="translate(-143.54 -109.886)" d="M 677.36 726.032 s -14.1624 28.3248 -5.901 34.2258 s 10.6218 8.2614 10.6218 8.2614 s 7.0812 -1.1802 5.901 9.44161 s 42.4872 16.5228 44.8476 8.2614 s 1.1802 -24.7842 -3.54061 -29.505 s -18.8832 -37.7664 -18.8832 -37.7664 S 695.063 701.248 677.36 726.032 Z" /><path fill="#2f2e41" transform="translate(-143.54 -109.886)" d="M 729.616 138.187 l 6.66977 -0.94746 s -9.28508 -17.0898 -27.2562 -20.1929 l 6.30833 -4.25771 s -10.9619 -7.83392 -25.1286 2.2356 c -7.44718 5.2933 -16.0939 11.5415 -22.4543 19.406 l -6.50628 -1.59008 l 1.25421 6.64282 l -10.9654 3.65643 L 661.555 144.45 a 34.3954 34.3954 0 0 0 -2.6885 9.85288 a 13.2096 13.2096 0 0 0 2.6474 9.54283 h 0 s 11.346 -13.7544 11.9404 -16.1866 l -1.486 6.08055 s 7.41277 -3.98771 8.30439 -7.636 l 2.27357 5.06625 l 3.29154 -6.2837 L 704.638 156.569 l -1.97636 -6.28234 l 12.2572 4.92866 l -3.33623 -7.90348 s 12.428 11.4142 11.3458 18.2378 c -1.08239 6.8235 1.57189 14.1886 1.57189 14.1886 S 743.403 151.222 729.616 138.187 Z" /><rect fill="#3f3d56" x="723.921" y="429.45" width="189" height="2.26159" /><rect fill="#cfcce0" x="160.896" y="603.708" width="45.558" height="45.558" /><path fill="#3f3d56" transform="translate(-143.54 -109.886)" d="M 344 753.158 H 296.044 V 705.202 h 47.9558 Z m -45.558 -2.39779 H 341.602 V 707.6 H 298.442 Z" /><rect fill="#f2f2f2" transform="translate(-238.073 53.6381) rotate(-21.1442)" x="375.348" y="320.092" width="30.9126" height="29.8422" /><path fill="#3f3d56" transform="translate(-143.54 -109.886)" d="M 405.393 341.159 l -30.3489 11.7375 l -11.3311 -29.298 L 394.061 311.861 Z m -29.398 9.68577 l 27.314 -10.5638 l -10.198 -26.3682 l -27.314 10.5638 Z" /><rect fill="#f2f2f2" transform="translate(1080.94 -535.567) rotate(71.0271)" x="895.028" y="630.141" width="30.9126" height="29.8422" /><path fill="#3f3d56" transform="translate(-143.54 -109.886)" d="M 903.789 659.407 L 893.21 628.635 l 29.7063 -10.213 l 10.5793 30.7718 Z m -8.565 -29.7438 l 9.52139 27.6946 l 26.7356 -9.1917 l -9.52139 -27.6946 Z" /><path fill="#6c63ff" transform="translate(-143.54 -109.886)" d="M 286.88 509.508 c 16.9036 0.3626 30.3502 12.6123 30.3502 12.6123 s -13.9595 11.6618 -30.8632 11.2992 S 256.017 520.807 256.017 520.807 S 269.977 509.145 286.88 509.508 Z" /><path fill="#6c63ff" transform="translate(-143.54 -109.886)" d="M 201.897 451.807 c 15.2717 7.2553 32.7834 2.33538 32.7834 2.33538 s -7.24856 -16.6831 -22.5203 -23.9384 s -32.7834 -2.33537 -32.7834 -2.33537 S 186.626 444.552 201.897 451.807 Z" /><path fill="#3f3d56" transform="translate(-143.54 -109.886)" d="M 203.45 444.597 c 16.8373 -1.53875 31.575 9.12272 31.575 9.12272 s -12.561 13.1563 -29.3984 14.695 s -31.575 -9.12272 -31.575 -9.12272 S 186.613 446.136 203.45 444.597 Z" /><path fill="#3f3d56" transform="translate(-143.54 -109.886)" d="M 265.17 447.512 c -1.61385 16.8303 8.98175 31.6154 8.98175 31.6154 s 13.2122 -12.5022 14.826 -29.3325 s -8.98175 -31.6154 -8.98175 -31.6154 S 266.784 430.682 265.17 447.512 Z" /><path fill="#3f3d56" transform="translate(-143.54 -109.886)" d="M 344.466 550.732 c -8.83127 14.4178 -5.79289 32.352 -5.79289 32.352 s 17.3567 -5.44166 26.188 -19.8594 s 5.79289 -32.352 5.79289 -32.352 S 353.297 536.314 344.466 550.732 Z" /><path fill="#3f3d56" transform="translate(-143.54 -109.886)" d="M 318.845 707.49 l 1.287 -0.8699 a 40.3208 40.3208 0 0 1 -7.11618 -22.3606 c 0.036 -11.6939 5.77986 -22.51 11.3348 -32.9701 c 1.03106 -1.94153 2.05871 -3.877 3.0473 -5.81095 a 126.848 126.848 0 0 0 9.86618 -24.7682 c 8.61631 -32.0198 0.1331 -69.797 -22.6921 -101.055 c -18.1071 -24.7963 -45.0993 -46.4793 -82.5182 -66.2882 l -0.72655 1.37273 c 37.2058 19.6959 64.0251 41.2299 81.9903 65.8316 c 22.5506 30.881 30.9417 68.1653 22.4463 99.7349 a 125.341 125.341 0 0 1 -9.74862 24.4648 c -0.98556 1.92675 -2.00941 3.85463 -3.03668 5.78934 c -5.64334 10.6269 -11.4789 21.6155 -11.5161 33.694 A 41.8882 41.8882 0 0 0 318.845 707.49 Z" /><circle fill="#3f3d56" cx="14.756" cy="330.767" r="14.7556" /><polygon fill="#2f2e41" points="818.044,417.926 628.109,349.709 662.018,255.296 780.281,226.293 851.954,323.514 818.044,417.926" /><path fill="#f2f2f2" transform="translate(-143.54 -109.886)" d="M 938.575 509.09 L 796.635 454.984 c 36.8477 -49.3566 53.3254 -84.1728 53.3375 -138.959 L 991.912 370.131 C 958.937 416.972 945.147 452.185 938.575 509.09 Z" /><rect fill="#3f3d56" transform="translate(46.3901 -410.896) rotate(20.8666)" x="872.979" y="363.4" width="78.6962" height="3.66029" /><rect fill="#3f3d56" transform="translate(50.9211 -408.141) rotate(20.8666)" x="867.764" y="377.081" width="78.6962" height="3.66029" /><rect fill="#3f3d56" transform="translate(55.452 -405.386) rotate(20.8666)" x="862.549" y="390.762" width="78.6962" height="3.66029" /><rect fill="#3f3d56" transform="translate(59.983 -402.631) rotate(20.8666)" x="857.334" y="404.442" width="78.6962" height="3.66029" /><rect fill="#3f3d56" transform="translate(64.514 -399.876) rotate(20.8666)" x="852.119" y="418.123" width="78.6962" height="3.66029" /><rect fill="#3f3d56" transform="translate(69.045 -397.122) rotate(20.8666)" x="846.904" y="431.804" width="78.6962" height="3.66029" /><rect fill="#3f3d56" transform="translate(73.576 -394.367) rotate(20.8666)" x="841.689" y="445.485" width="78.6962" height="3.66029" /><rect fill="#3f3d56" transform="translate(78.107 -391.612) rotate(20.8666)" x="836.473" y="459.166" width="78.6962" height="3.66029" /><polygon fill="#3f3d56" points="813.656,430.144 623.721,361.927 662.018,255.296 742.226,330.502 851.954,323.514 813.656,430.144" /><polygon fill="#6c63ff" points="717.148,396.545 622.442,362.53 645.518,298.277 647.401,298.953 625.001,361.323 717.824,394.662 717.148,396.545" /><rect fill="#6c63ff" transform="matrix(0.94114 0.33802 -0.33802 0.94114 52.4844 -358.249)" x="796.39" y="432.766" width="29.505" height="11.802" /><polygon fill="#3f3d56" points="369.521,642.111 220.865,642.032 222.032,558.576 295.91,591.781 370.688,560.655 369.521,642.111" /><rect fill="#6c63ff" transform="translate(-133.458 -115.228) rotate(0.80117)" x="376.179" y="713.977" width="21.7355" height="8.69421" /><polygon fill="#6c63ff" points="371.185,560.541 296.045,598.848 221.641,560.541 221.641,558.331 371.185,558.331 371.185,560.541" /><ellipse fill="#6c63ff" transform="translate(127.93 975.411) rotate(-69.1334)" cx="923.327" cy="345.645" rx="9.02966" ry="25" /><path fill="#6c63ff" transform="translate(-143.54 -109.886)" d="M 967.105 212.439 a 38 38 0 0 0 -47.5693 25.0033 c -6.23144 20.0403 10.751 93.4046 10.751 93.4046 s 55.5901 -50.7982 61.8215 -70.8385 A 38 38 0 0 0 967.105 212.439 Z M 950.477 265.913 a 18 18 0 1 1 22.5328 -11.8436 A 18 18 0 0 1 950.477 265.913 Z" /></svg>